# xmcd
#
# Track frame offsets: 
#        150
#        3157
#        16657
#        27607
#        48457
#        68880
#        70785
#        94905
#        115571
#        137471
#        155849
#        174553
#
# Disc length: 2565 seconds
#
# Revision: 1
# Processed by: cddbd v1.5.2PL0 Copyright (c) Steve Scherf et al.
# Submitted via: ExactAudioCopyFreeDBPlugin 1.0
#
DISCID=950a030c
DTITLE=Huge L - Egotaide
DYEAR=2009
DGENRE=Rap
TTITLE0=Tervetuloa
TTITLE1=Limited
TTITLE2=Olemisenmuoto
TTITLE3=PAMC
TTITLE4=Lähio Lupiini
TTITLE5=Puhallettu 25 Sec.
TTITLE6=Autotune
TTITLE7=Vähän Niinku
TTITLE8=Vaatekappale
TTITLE9=Pukeuden Puhun Nukun
TTITLE10=Qhan Vittuilin Part2
TTITLE11=Egolooginen
EXTD=
EXTT0=
EXTT1=
EXTT2=
EXTT3=
EXTT4=
EXTT5=
EXTT6=
EXTT7=
EXTT8=
EXTT9=
EXTT10=
EXTT11=
PLAYORDER=
